<?xml version="1.0" encoding="UTF-8"?>
<svg id="Layer_2" data-name="Layer 2" xmlns="http://www.w3.org/2000/svg" xmlns:xlink="http://www.w3.org/1999/xlink" version="1.1" viewBox="0 0 200 84">
  <defs>
    <style>
      .cls-1 {
        clip-path: url(#clippath);
      }

      .cls-2 {
        fill: none;
      }

      .cls-2, .cls-3 {
        stroke-width: 0px;
      }

      .cls-3 {
        fill: #462850;
      }
    </style>
    <clipPath id="clippath">
      <rect class="cls-2" width="200" height="84"/>
    </clipPath>
  </defs>
  <g id="Layer_1-2" data-name="Layer 1-2">
    <g class="cls-1">
      <g>
        <path class="cls-3" d="M42.3,56.7c-8.2,0-14.8-6.6-14.8-14.7s6.6-14.7,14.8-14.7,14.8,6.6,14.8,14.7-6.6,14.7-14.8,14.7M42.3,28c-7.8,0-14.1,6.3-14.1,14s6.3,14,14.1,14,14.1-6.3,14.1-14-6.3-14-14.1-14M42.3,24.3c2,0,3.9.5,5.7,1.1.4.1.7.3,1.1.4.3.1.7.3,1,.5,1.8.8,3.4,1.9,4.8,3.2,1.4,1.4,2.4,3,3.2,4.8.2.3.3.7.5,1,.2.3.3.7.4,1.1.7,1.8,1.1,3.7,1.1,5.7s-.5,3.9-1.1,5.7c-.1.4-.3.7-.4,1.1-.1.3-.3.7-.5,1-.8,1.8-1.9,3.4-3.2,4.8s-3,2.4-4.8,3.2c-.3.2-.7.3-1,.5-.3.2-.7.3-1.1.4-1.8.7-3.7,1.1-5.7,1.1s-3.9-.5-5.7-1.1c-.4-.1-.7-.3-1.1-.4-.3-.2-.7-.3-1-.5-1.8-.8-3.4-1.9-4.8-3.2s-2.4-3-3.2-4.8c-.2-.3-.3-.7-.5-1-.1-.3-.3-.7-.4-1.1-.7-1.8-1.1-3.7-1.1-5.7s.5-3.9,1.1-5.6c.1-.4.3-.7.4-1.1.1-.3.3-.7.5-1,.8-1.8,1.9-3.4,3.2-4.8s3-2.4,4.8-3.2c.3-.2.7-.3,1-.5.3-.1.7-.3,1.1-.4,1.8-.6,3.7-1.1,5.7-1.1M42.3,25.1c-1.9,0-3.7.4-5.3,1-.4.1-.7.3-1.1.4-.3.1-.7.3-1,.5-1.7.8-3.2,1.8-4.5,3-1.3,1.3-2.3,2.8-3,4.5-.2.3-.3.7-.5,1-.1.3-.3.7-.4,1.1-.6,1.7-1,3.5-1,5.3s.4,3.6,1,5.3c.1.4.3.7.4,1.1.1.3.3.7.5,1,.8,1.7,1.8,3.2,3,4.5,1.3,1.3,2.9,2.2,4.5,3,.3.2.7.3,1,.5.4.2.7.3,1.1.4,1.7.6,3.5,1,5.4,1s3.7-.4,5.3-1c.4-.1.7-.3,1.1-.4.3-.2.7-.3,1-.5,1.7-.8,3.2-1.8,4.5-3,1.3-1.3,2.3-2.8,3-4.5.2-.3.3-.7.5-1,.2-.3.3-.7.4-1.1.6-1.7,1-3.5,1-5.3s-.4-3.6-1-5.3c-.1-.4-.3-.7-.4-1.1-.2-.3-.3-.7-.5-1-.8-1.7-1.8-3.2-3-4.5-1.3-1.3-2.8-2.2-4.5-3-.3-.2-.7-.3-1-.5-.4-.1-.7-.3-1.1-.4-1.7-.6-3.5-1-5.4-1M42.3,21.2c2.3,0,4.5.6,6.6,1.4.4.2.8.3,1.3.5.4.2.8.3,1.2.5,2.1.9,4.1,2,5.7,3.7,1.6,1.6,2.7,3.6,3.7,5.7.2.4.3.8.5,1.2.2.4.3.8.5,1.2.8,2.1,1.4,4.2,1.4,6.6s-.6,4.5-1.4,6.6c-.2.4-.3.8-.5,1.3-.2.4-.3.8-.5,1.2-.9,2.1-2.1,4.1-3.7,5.7s-3.6,2.7-5.7,3.7c-.4.2-.8.3-1.2.5-.4.2-.8.3-1.2.5-2.1.8-4.3,1.4-6.6,1.4s-4.5-.6-6.6-1.4c-.4-.2-.8-.3-1.3-.5-.4-.2-.8-.3-1.2-.5-2.1-.9-4.1-2-5.7-3.7-1.6-1.6-2.7-3.6-3.7-5.7-.2-.4-.4-.8-.5-1.2-.2-.4-.3-.8-.5-1.2-.8-2.1-1.4-4.2-1.4-6.6s.6-4.5,1.4-6.6c.2-.4.3-.8.5-1.3.2-.4.3-.8.5-1.2.9-2.1,2.1-4.1,3.7-5.7s3.6-2.7,5.7-3.7c.4-.2.8-.4,1.2-.5.4-.2.8-.3,1.2-.5,2.1-.8,4.3-1.4,6.6-1.4M42.3,22.2c-2.2,0-4.2.6-6.2,1.3-.4.2-.9.3-1.3.5-.4.2-.8.4-1.2.5-2,.9-3.9,2-5.4,3.4-1.5,1.5-2.6,3.4-3.5,5.3-.2.4-.4.8-.5,1.2s-.3.8-.5,1.3c-.8,2-1.3,4-1.3,6.2s.6,4.2,1.3,6.2c.2.4.3.9.5,1.3s.3.8.5,1.2c.9,2,2,3.8,3.5,5.3,1.5,1.5,3.4,2.5,5.3,3.4.4.2.8.3,1.2.5.4.2.8.3,1.3.5,2,.8,4,1.3,6.2,1.3s4.2-.6,6.2-1.3c.4-.2.9-.3,1.3-.5.4-.2.8-.3,1.2-.5,2-.9,3.9-2,5.4-3.4,1.5-1.5,2.6-3.4,3.5-5.3.2-.4.4-.8.5-1.2s.3-.8.5-1.3c.8-2,1.3-4,1.3-6.2s-.6-4.2-1.3-6.2c-.2-.4-.3-.9-.5-1.3s-.3-.8-.5-1.2c-.9-2-2-3.8-3.5-5.3s-3.4-2.5-5.3-3.4c-.4-.2-.8-.4-1.2-.5-.4-.2-.8-.3-1.3-.5-2-.8-4-1.3-6.2-1.3M42.3,18.2c2.7,0,5.2.8,7.5,1.7.5.2,1,.4,1.4.6.5.2.9.4,1.4.6,2.4,1,4.7,2.2,6.6,4.1,1.8,1.8,3.1,4.2,4.1,6.5.2.5.4.9.6,1.4.2.5.4.9.6,1.4.9,2.3,1.7,4.8,1.7,7.5s-.8,5.1-1.7,7.5c-.2.5-.4,1-.6,1.4-.2.5-.4.9-.6,1.4-1,2.4-2.3,4.7-4.1,6.5-1.8,1.8-4.2,3-6.6,4.1-.5.2-.9.4-1.4.6-.5.2-1,.4-1.4.6-2.4.9-4.8,1.7-7.5,1.7s-5.2-.8-7.5-1.7c-.5-.2-1-.4-1.4-.6-.5-.2-.9-.4-1.4-.6-2.4-1-4.7-2.2-6.6-4.1-1.9-1.8-3.1-4.2-4.1-6.5-.2-.5-.4-.9-.6-1.4-.2-.5-.4-.9-.6-1.4-.9-2.3-1.7-4.8-1.7-7.5s.8-5.1,1.7-7.5c.2-.5.4-1,.6-1.4.2-.5.4-.9.6-1.4,1-2.4,2.3-4.7,4.1-6.5,1.9-1.8,4.2-3,6.6-4.1.5-.2.9-.4,1.4-.6.5-.2,1-.4,1.4-.6,2.4-.9,4.8-1.7,7.5-1.7M42.3,19.4c-2.5,0-4.8.8-7.1,1.6-.5.2-1,.4-1.5.6-.5.2-.9.4-1.4.6-2.3,1-4.5,2.1-6.2,3.8-1.7,1.7-2.9,3.9-3.9,6.1-.2.5-.4.9-.6,1.4-.2.5-.4,1-.6,1.4-.9,2.2-1.6,4.6-1.6,7s.8,4.8,1.6,7c.2.5.4,1,.6,1.5.2.5.4.9.6,1.4,1,2.2,2.1,4.5,3.9,6.1,1.7,1.7,3.9,2.8,6.2,3.8.5.2.9.4,1.4.6.5.2,1,.4,1.5.6,2.2.9,4.6,1.6,7.1,1.6s4.8-.8,7.1-1.6c.5-.2,1-.4,1.5-.6.5-.2.9-.4,1.4-.6,2.3-1,4.5-2.1,6.2-3.8,1.7-1.7,2.8-3.9,3.8-6.1.2-.5.4-.9.6-1.4.2-.5.4-1,.6-1.4.9-2.2,1.6-4.6,1.6-7s-.8-4.8-1.6-7c-.2-.5-.4-1-.6-1.5-.2-.5-.4-.9-.6-1.4-1-2.2-2.1-4.5-3.8-6.1-1.7-1.7-3.9-2.8-6.2-3.8-.5-.2-.9-.4-1.4-.6-.5-.2-1-.4-1.5-.6-2.2-.9-4.6-1.6-7.1-1.6M42.3,15.2c3,0,5.8,1,8.5,2,.5.2,1.1.5,1.6.7.5.2,1,.4,1.6.6,2.7,1.1,5.4,2.4,7.5,4.5,2.1,2.1,3.4,4.7,4.5,7.4.2.5.4,1,.7,1.5.2.5.4,1.1.7,1.6,1.1,2.6,2.1,5.4,2.1,8.4s-1,5.8-2.1,8.4c-.2.5-.4,1.1-.7,1.6l-.7,1.6c-1.2,2.7-2.5,5.3-4.5,7.4-2.1,2.1-4.8,3.4-7.5,4.5-.5.2-1,.4-1.6.7-.5.2-1.1.4-1.6.7-2.7,1.1-5.4,2.1-8.5,2.1s-5.8-1-8.5-2c-.5-.2-1.1-.4-1.6-.7-.5-.2-1-.4-1.6-.7-2.7-1.1-5.4-2.4-7.5-4.5-2.1-2.1-3.4-4.7-4.5-7.4-.2-.5-.4-1-.6-1.5-.2-.5-.5-1.1-.7-1.6-1.1-2.6-2.1-5.4-2.1-8.4s1-5.8,2-8.4c.2-.5.5-1.1.7-1.6.2-.5.4-1,.7-1.6,1.1-2.7,2.5-5.4,4.5-7.4,2.1-2.1,4.8-3.4,7.5-4.5.5-.2,1-.4,1.6-.6.5-.2,1.1-.4,1.6-.7,2.7-1.1,5.4-2.1,8.5-2.1M42.3,16.5c-2.8,0-5.4.9-7.9,1.9-.5.2-1.1.5-1.6.7-.5.2-1.1.4-1.6.7-2.6,1.1-5.1,2.3-7,4.2s-3.1,4.4-4.2,7c-.2.5-.4,1-.7,1.6-.2.5-.5,1.1-.7,1.6-1,2.5-2,5.1-2,7.9s.9,5.4,2,7.9c.2.5.5,1.1.7,1.6.2.5.4,1,.7,1.6,1.1,2.5,2.3,5.1,4.2,7,1.9,1.9,4.5,3.1,7,4.2.5.2,1.1.4,1.6.7.5.2,1.1.4,1.6.7,2.5,1,5.2,1.9,7.9,1.9s5.4-.9,7.9-1.9c.5-.2,1.1-.4,1.6-.7.5-.2,1.1-.4,1.6-.7,2.6-1.1,5.1-2.3,7-4.2,1.9-1.9,3.2-4.4,4.2-7,.2-.5.4-1,.7-1.6.2-.5.4-1.1.7-1.6,1-2.5,1.9-5.1,1.9-7.9s-.9-5.4-1.9-7.9c-.2-.5-.4-1.1-.7-1.6-.2-.5-.4-1-.7-1.6-1.1-2.5-2.3-5.1-4.2-7-1.9-1.9-4.5-3.1-7-4.2-.5-.2-1.1-.4-1.6-.7-.5-.2-1.1-.5-1.6-.7-2.5-1-5.2-1.9-7.9-1.9M42.3,12.1c3.4,0,6.4,1.1,9.4,2.3.6.2,1.2.5,1.8.8.6.2,1.2.5,1.8.7,3,1.2,6,2.6,8.3,4.9s3.7,5.3,5,8.3c.2.6.5,1.2.7,1.7.2.6.5,1.2.8,1.8,1.2,2.9,2.4,6,2.4,9.3s-1.2,6.4-2.4,9.3c-.2.6-.5,1.2-.8,1.8-.2.6-.5,1.2-.7,1.7-1.3,3-2.7,6-5,8.3-2.3,2.3-5.3,3.7-8.3,4.9-.6.2-1.2.5-1.7.7-.6.2-1.2.5-1.8.8-2.9,1.2-6,2.4-9.4,2.4s-6.4-1.2-9.4-2.3c-.6-.2-1.2-.5-1.8-.8-.6-.2-1.2-.5-1.8-.7-3-1.2-6-2.6-8.3-4.9-2.3-2.3-3.7-5.3-5-8.3-.2-.6-.5-1.2-.7-1.7-.2-.6-.5-1.2-.8-1.8-1.2-2.9-2.4-6-2.4-9.3s1.1-6.4,2.4-9.3c.2-.6.5-1.2.8-1.8.2-.6.5-1.2.7-1.7,1.3-3,2.6-6,5-8.3,2.3-2.3,5.3-3.7,8.3-4.9.6-.2,1.2-.5,1.7-.7.6-.2,1.2-.5,1.8-.8,2.9-1.2,6-2.4,9.4-2.4M42.3,13.6c-3.1,0-6,1.1-8.8,2.2-.6.2-1.2.5-1.8.8-.6.2-1.2.5-1.8.7-2.9,1.2-5.7,2.5-7.9,4.6s-3.4,5-4.6,7.8c-.2.6-.5,1.2-.7,1.8-.2.6-.5,1.2-.8,1.8-1.2,2.8-2.3,5.7-2.3,8.7s1.1,6,2.2,8.7c.2.6.5,1.2.8,1.8.2.6.5,1.2.7,1.8,1.2,2.8,2.5,5.7,4.6,7.8s5,3.4,7.9,4.6c.6.2,1.2.5,1.8.7.6.2,1.2.5,1.8.8,2.8,1.2,5.7,2.2,8.8,2.2s6-1.1,8.8-2.2c.6-.2,1.2-.5,1.8-.8.6-.2,1.2-.5,1.8-.7,2.8-1.2,5.7-2.5,7.8-4.6,2.1-2.1,3.4-5,4.6-7.8.2-.6.5-1.2.7-1.8.2-.6.5-1.2.8-1.8,1.2-2.8,2.3-5.7,2.3-8.7s-1.1-6-2.2-8.7c-.2-.6-.5-1.2-.8-1.8-.2-.6-.5-1.2-.7-1.8-1.2-2.8-2.5-5.7-4.6-7.8-2.1-2.1-5-3.4-7.8-4.6-.6-.2-1.2-.5-1.8-.7-.6-.2-1.2-.5-1.8-.8-2.8-1.1-5.7-2.2-8.8-2.2M42.3,9.1c3.7,0,7.1,1.3,10.3,2.7.7.3,1.3.6,2,.8.6.3,1.3.5,1.9.8,3.3,1.4,6.7,2.8,9.2,5.3,2.6,2.5,4,5.9,5.4,9.2.3.6.5,1.3.8,1.9.3.6.6,1.3.8,2,1.4,3.2,2.7,6.5,2.7,10.2s-1.3,7-2.7,10.2c-.3.7-.6,1.3-.8,2-.3.6-.5,1.3-.8,1.9-1.4,3.3-2.8,6.6-5.4,9.2-2.5,2.5-5.9,4-9.2,5.3-.6.3-1.3.5-1.9.8-.7.3-1.3.6-2,.8-3.2,1.4-6.6,2.7-10.3,2.7s-7.1-1.3-10.3-2.7c-.7-.3-1.3-.6-2-.8-.6-.3-1.3-.5-1.9-.8-3.3-1.3-6.7-2.8-9.2-5.4s-4-5.9-5.4-9.2c-.3-.6-.5-1.3-.8-1.9-.3-.6-.6-1.3-.8-2-1.4-3.2-2.7-6.5-2.7-10.2s1.3-7,2.7-10.2c.3-.7.6-1.3.8-2,.3-.6.5-1.3.8-1.9,1.4-3.3,2.8-6.6,5.4-9.2,2.5-2.5,5.9-4,9.2-5.4.6-.3,1.3-.5,1.9-.8.6-.3,1.3-.6,2-.8,3.2-1.4,6.6-2.7,10.3-2.7M42.3,10.7c-3.4,0-6.6,1.2-9.6,2.5-.7.3-1.3.6-2,.8-.6.3-1.3.5-2,.8-3.1,1.3-6.4,2.7-8.7,5-2.3,2.3-3.7,5.5-5,8.6-.3.6-.5,1.3-.8,1.9-.3.6-.6,1.3-.8,2-1.3,3-2.6,6.2-2.6,9.6s1.3,6.5,2.6,9.6c.3.7.6,1.3.8,2,.3.6.5,1.3.8,1.9,1.3,3.1,2.7,6.3,5,8.6,2.3,2.3,5.5,3.7,8.7,5,.6.3,1.3.5,2,.8.7.3,1.3.6,2,.8,3.1,1.3,6.3,2.5,9.7,2.5s6.6-1.2,9.7-2.5c.7-.3,1.3-.6,2-.8.7-.3,1.3-.5,2-.8,3.2-1.3,6.3-2.7,8.7-5,2.3-2.3,3.7-5.5,5-8.6.3-.7.5-1.3.8-1.9.3-.7.6-1.3.8-2,1.3-3,2.6-6.2,2.6-9.6s-1.3-6.5-2.6-9.6c-.3-.7-.6-1.3-.8-2-.3-.6-.5-1.3-.8-1.9-1.3-3.1-2.7-6.3-5-8.6-2.3-2.3-5.5-3.7-8.7-5-.7-.3-1.3-.5-2-.8-.7-.3-1.3-.6-2-.8-3.1-1.3-6.3-2.5-9.7-2.5M42.3,6.1c4,0,7.7,1.5,11.2,3,.7.3,1.4.6,2.2.9.7.3,1.4.6,2.1.9,3.6,1.5,7.3,3,10.1,5.8,2.8,2.8,4.3,6.4,5.8,10,.3.7.6,1.4.9,2.1.3.7.6,1.4.9,2.1,1.5,3.5,3,7.1,3,11.1s-1.5,7.7-3,11.1c-.3.7-.6,1.4-.9,2.1-.3.7-.6,1.4-.9,2.1-1.5,3.6-3,7.3-5.8,10-2.8,2.8-6.5,4.3-10.1,5.8-.7.3-1.4.6-2.1.8-.7.3-1.4.6-2.2.9-3.5,1.5-7.2,3-11.2,3s-7.7-1.5-11.2-3c-.7-.3-1.4-.6-2.1-.9-.7-.3-1.4-.6-2.1-.8-3.6-1.5-7.3-3-10.1-5.8-2.8-2.8-4.4-6.5-5.8-10-.3-.7-.6-1.4-.9-2.1-.3-.7-.6-1.4-.9-2.1-1.5-3.5-3-7.1-3-11.1s1.5-7.7,3-11.1c.3-.7.6-1.4.9-2.1.3-.7.6-1.4.9-2.1,1.5-3.6,3-7.3,5.8-10,2.8-2.8,6.5-4.3,10.1-5.8.7-.3,1.4-.6,2.1-.9.7-.3,1.4-.6,2.1-.9,3.5-1.5,7.2-3,11.2-3M42.3,7.8c-3.7,0-7.2,1.4-10.5,2.8-.7.3-1.5.6-2.2.9-.7.3-1.4.6-2.1.9-3.5,1.4-7,2.9-9.5,5.4-2.5,2.5-4,6-5.4,9.4-.3.7-.6,1.4-.9,2.1-.3.7-.6,1.4-.9,2.2-1.4,3.3-2.9,6.8-2.9,10.5s1.4,7.1,2.9,10.4c.3.7.6,1.5.9,2.2.3.7.6,1.4.9,2.1,1.4,3.4,2.9,6.9,5.4,9.5,2.5,2.5,6.1,4,9.5,5.4.7.3,1.4.6,2.1.9.7.3,1.5.6,2.2.9,3.3,1.4,6.8,2.8,10.5,2.8s7.2-1.4,10.5-2.8c.7-.3,1.5-.6,2.2-.9.7-.3,1.4-.6,2.1-.9,3.5-1.4,7-2.9,9.5-5.4,2.5-2.5,4-6,5.4-9.5.3-.7.6-1.4.9-2.1.3-.7.6-1.4.9-2.2,1.4-3.3,2.9-6.8,2.9-10.5s-1.4-7.1-2.9-10.4c-.3-.7-.6-1.5-.9-2.2-.3-.7-.6-1.4-.9-2.1-1.4-3.4-2.9-6.9-5.4-9.5s-6.1-4-9.5-5.4c-.7-.3-1.4-.6-2.1-.9-.7-.3-1.5-.6-2.2-.9-3.3-1.4-6.8-2.8-10.5-2.8M42.3,3c4.4,0,8.3,1.7,12.1,3.3.8.3,1.6.7,2.3,1,.8.3,1.5.6,2.3.9,3.9,1.6,8,3.2,11,6.2,3,3,4.7,7,6.2,10.9.3.8.6,1.5.9,2.3.3.8.7,1.5,1,2.3,1.7,3.8,3.3,7.7,3.3,12.1s-1.7,8.3-3.3,12c-.3.8-.7,1.5-1,2.3-.3.8-.6,1.5-.9,2.3-1.6,3.9-3.2,7.9-6.2,10.9s-7.1,4.6-11,6.2c-.8.3-1.5.6-2.3.9-.8.3-1.5.7-2.3,1-3.8,1.6-7.7,3.3-12.1,3.3s-8.3-1.7-12.1-3.3c-.8-.3-1.6-.7-2.3-1-.8-.3-1.5-.6-2.3-.9-3.9-1.6-8-3.2-11-6.2s-4.7-7-6.2-10.9c-.3-.8-.6-1.5-.9-2.3-.3-.8-.7-1.5-1-2.3-1.7-3.8-3.3-7.7-3.3-12.1s1.7-8.3,3.3-12c.3-.8.7-1.5,1-2.3.3-.8.6-1.5.9-2.3,1.6-3.9,3.2-7.9,6.2-10.9,3-3,7.1-4.6,11-6.2.8-.3,1.5-.6,2.3-.9.8-.3,1.5-.7,2.3-1,3.8-1.6,7.7-3.3,12.1-3.3M42.3,4.9c-4,0-7.8,1.6-11.4,3.1-.8.3-1.6.7-2.4,1-.8.3-1.5.6-2.3.9-3.8,1.5-7.6,3.1-10.4,5.8-2.8,2.7-4.3,6.6-5.8,10.3-.3.8-.6,1.5-.9,2.3-.3.8-.7,1.5-1,2.4-1.6,3.6-3.2,7.3-3.2,11.3s1.6,7.7,3.2,11.3c.3.8.7,1.6,1,2.3.3.8.6,1.5.9,2.3,1.5,3.7,3.1,7.6,5.8,10.3,2.8,2.7,6.6,4.3,10.4,5.8.8.3,1.5.6,2.3.9.8.3,1.6.7,2.4,1,3.6,1.6,7.4,3.1,11.4,3.1s7.8-1.6,11.4-3.1c.8-.3,1.6-.7,2.4-1,.8-.3,1.5-.6,2.3-.9,3.7-1.5,7.6-3.1,10.3-5.8,2.8-2.7,4.3-6.6,5.8-10.3.3-.8.6-1.5.9-2.3.3-.8.7-1.6,1-2.3,1.6-3.6,3.2-7.3,3.2-11.3s-1.6-7.7-3.2-11.3c-.3-.8-.7-1.6-1-2.4-.3-.8-.6-1.5-.9-2.3-1.5-3.7-3.1-7.6-5.8-10.3-2.8-2.7-6.6-4.3-10.3-5.8-.8-.3-1.5-.6-2.3-.9-.8-.3-1.6-.7-2.4-1-3.6-1.6-7.4-3.1-11.4-3.1M42.3,84c-4.7,0-9-1.8-13-3.6-.8-.4-1.7-.7-2.5-1.1-.8-.3-1.6-.7-2.5-1-4.2-1.7-8.6-3.4-11.9-6.6-3.2-3.2-5-7.6-6.7-11.8-.3-.8-.7-1.6-1-2.5-.3-.8-.7-1.7-1.1-2.5-1.8-4.1-3.6-8.3-3.6-13s1.9-8.9,3.6-13c.4-.8.7-1.7,1.1-2.5.3-.8.7-1.6,1-2.5,1.7-4.2,3.4-8.6,6.7-11.8,3.3-3.2,7.6-5,11.9-6.6.8-.3,1.6-.7,2.5-1,.8-.3,1.7-.7,2.5-1.1C33.3,1.8,37.5,0,42.3,0s9,1.8,13,3.6c.8.4,1.7.7,2.5,1.1.8.3,1.6.7,2.5,1,4.2,1.7,8.6,3.4,11.9,6.6,3.2,3.2,5,7.6,6.7,11.8.3.8.7,1.6,1,2.5.3.8.7,1.7,1.1,2.5,1.8,4.1,3.6,8.3,3.6,13s-1.8,8.9-3.6,13c-.4.8-.7,1.7-1.1,2.5-.3.8-.7,1.6-1,2.5-1.7,4.2-3.4,8.6-6.7,11.8-3.3,3.2-7.6,5-11.9,6.6-.8.3-1.7.7-2.5,1-.8.3-1.7.7-2.5,1.1-4.1,1.8-8.3,3.6-13,3.6M42.3,2c-4.3,0-8.3,1.8-12.2,3.4-.9.4-1.7.7-2.5,1.1-.8.3-1.7.7-2.5,1-4,1.6-8.2,3.2-11.2,6.2-3,2.9-4.6,7.1-6.2,11.1-.3.8-.7,1.7-1,2.5-.3.8-.7,1.7-1.1,2.5-1.7,3.9-3.5,7.9-3.5,12.1s1.8,8.3,3.5,12.1c.4.8.8,1.7,1.1,2.5.3.8.7,1.7,1,2.5,1.6,4,3.3,8.2,6.2,11.1,3,2.9,7.1,4.6,11.2,6.2.8.3,1.7.7,2.5,1,.8.3,1.7.7,2.5,1.1,3.9,1.7,7.9,3.4,12.2,3.4s8.3-1.8,12.2-3.4c.9-.4,1.7-.7,2.5-1.1.8-.3,1.7-.7,2.5-1,4-1.6,8.2-3.2,11.2-6.2s4.6-7.1,6.2-11.1c.3-.8.7-1.7,1-2.5.3-.8.7-1.7,1.1-2.5,1.7-3.9,3.5-7.9,3.5-12.1s-1.8-8.3-3.5-12.1c-.4-.9-.8-1.7-1.1-2.5-.3-.8-.7-1.6-1-2.5-1.6-4-3.3-8.2-6.2-11.1s-7.1-4.6-11.2-6.2c-.8-.3-1.7-.7-2.5-1-.8-.3-1.7-.7-2.5-1.1-3.9-1.7-7.9-3.4-12.2-3.4"/>
        <path class="cls-3" d="M174.1,23c-7.1,0-12.3,3.5-15.4,9.5-2.4-6.1-7.8-9.5-14.4-9.5s-10.1,2.5-13.6,7.2h-.2v-6.2h-5.9v49.8h5.9v-29.6c0-9.8,5.1-16.1,12.9-16.1s10.9,4.8,10.9,13v32.8h5.9v-30.4c0-9.2,5.1-15.4,12.9-15.4s10.9,3.6,10.9,14.5v31.3h5.9v-31.7c0-12.8-5.6-19.1-15.9-19.1ZM103.7,29h-8.7v-4.9h5c2.1-.1,3.7-1.8,3.7-3.9v-10.3h5.9v14.2h9.8v4.9h-9.8v32.2c0,5.6,1.9,7.9,7,7.9s2.6-.2,3.3-.4v5c-1.2.3-3,.5-4.4.5-8.3,0-11.8-3.7-11.8-12.8V29h0Z"/>
      </g>
    </g>
  </g>
  <path class="cls-3" d="M188.1,20.3v4.2h-.7v-4.2h-1.6v-.6h4v.6h-1.6ZM195,24.5v-4.1h0c-.2.6-.4,1.1-.6,1.7l-.9,2.4h-.8l-.9-2.4c-.2-.6-.4-1.1-.6-1.7h0c0,.6,0,1.2,0,1.7v2.3h-.7v-4.8h1.1l.8,2.2c.2.6.4,1.2.7,1.8h0l.6-1.8.8-2.2h1.1v4.8h-.7Z"/>
</svg>